<!--?xml version="1.0" encoding="utf-8"?-->
<!-- Generator: Adobe Illustrator 15.1.0, SVG Export Plug-In . SVG Version: 6.00 Build 0)  -->

<svg version="1.1" id="_x32_" xmlns="http://www.w3.org/2000/svg" xmlns:xlink="http://www.w3.org/1999/xlink" x="0px" y="0px" width="512px" height="512px" viewBox="0 0 512 512" style="width: 48px; height: 48px; opacity: 1;" xml:space="preserve">
<style type="text/css">

	.st0{fill:#4B4B4B;}

</style>
<g>
	<path class="st0" d="M455.412,56.59C417.771,18.934,368.115-0.035,318.787-0.004c-49.328-0.031-98.984,18.938-136.625,56.594
		c-37.656,37.641-56.625,87.297-56.578,136.625c-0.047,49.328,18.922,98.984,56.594,136.625
		c37.625,37.656,87.281,56.625,136.609,56.578c49.328,0.047,98.984-18.922,136.625-56.578
		c37.656-37.641,56.625-87.297,56.578-136.625C512.053,143.887,493.068,94.23,455.412,56.59z M402.662,277.09
		c-23.266,23.234-53.391,34.688-83.875,34.75c-30.484-0.063-60.609-11.516-83.859-34.75c-23.25-23.25-34.703-53.391-34.766-83.875
		c0.063-30.484,11.516-60.609,34.75-83.875c23.266-23.234,53.391-34.688,83.875-34.75c30.484,0.063,60.625,11.531,83.875,34.75
		c23.234,23.266,34.703,53.391,34.75,83.875C437.365,223.699,425.896,253.84,402.662,277.09z" style="fill: rgb(75, 75, 75);"></path>
	<path class="st0" d="M92.787,353.293l-79.125,79.125c-18.203,18.203-18.203,47.719,0,65.922c18.203,18.219,47.719,18.219,65.938,0
		l79.109-79.109c18.219-18.203,18.219-47.734,0-65.938C140.506,335.09,110.99,335.09,92.787,353.293z" style="fill: rgb(75, 75, 75);"></path>
</g>
</svg>
